# xmcd CD database file
#
# Track frame offsets:
#	150
#	25712
#	43299
#	66999
#	95077
#	109243
#	127325
#	152613
#	166208
#	184699
#	209641
#
# Disc length: 3037 seconds
#
# Revision: 0
# Processed by: cddbd v1.5.2PL0 Copyright (c) Steve Scherf et al.
# Submitted via: CDex 1.70beta2
#
DISCID=a20bdb0b
DTITLE=Chet Baker - Complete recordings at the forum theatre
DYEAR=2007
DGENRE=Jazz
TTITLE0=Tabu
TTITLE1=Halema
TTITLE2=To Mickey's memory
TTITLE3=Down
TTITLE4=I can't get started
TTITLE5=Revelation
TTITLE6=Lucius Lou
TTITLE7=Worryin'the life out of me
TTITLE8=Something for Liza
TTITLE9=Medium rock
TTITLE10=Pawnee junction
EXTD=YEAR: 2007
EXTT0=
EXTT1=
EXTT2=
EXTT3=
EXTT4=
EXTT5=
EXTT6=
EXTT7=
EXTT8=
EXTT9=
EXTT10=
PLAYORDER=
